<svg xmlns="http://www.w3.org/2000/svg" width="128" height="64" viewBox="0 0 128 64"><path d="M37.3 15.7a9.2 9.2 0 0 0 2.5 2.9c.9.6 1.9 1 3 1.1v.3c-1 0-2.1-.2-3.3-.6s-2.3-.9-3.3-1.6c-1-.7-2-1.4-2.7-2.1-1.1-.4-1.9-.9-2.6-1.4-.9-.7-1.6-1.6-2.1-2.7-.5-1-.8-2.3-.8-3.7 0-2.3.7-4.1 2.2-5.6C31.7.7 33.5 0 35.6 0c2 0 3.7.8 5.2 2.3S43 5.7 43 8c0 1.9-.5 3.5-1.5 4.9a9.18 9.18 0 0 1-4.2 2.8zM35.4.9c-1.4 0-2.4.5-3.3 1.5-1 1.2-1.6 3.1-1.6 5.6 0 2.5.5 4.3 1.6 5.7a4 4 0 0 0 3.3 1.5c1.4 0 2.5-.5 3.4-1.5 1-1.2 1.5-3 1.5-5.3 0-1.8-.3-3.3-.8-4.6-.4-1-1-1.7-1.7-2.1-.7-.6-1.5-.8-2.4-.8zM54.7.4V0h5.4v.4h-.6c-.6 0-1.1.2-1.4.7-.2.2-.2.8-.2 1.6v6.2c0 1.5-.2 2.7-.5 3.5s-.9 1.6-1.8 2.2c-.9.6-2.1.9-3.6.9-1.7 0-2.9-.3-3.8-.9-.9-.6-1.5-1.3-1.8-2.3-.2-.7-.4-1.9-.4-3.7V2.7c0-.9-.1-1.5-.4-1.8S45 .4 44.5.4h-.6V0h6.6v.4h-.6c-.6 0-1.1.2-1.3.6-.2.3-.3.8-.3 1.7v6.6c0 .6.1 1.3.2 2 .1.8.3 1.4.6 1.8.3.4.7.8 1.2 1.1s1.2.4 2 .4c1 0 1.9-.2 2.7-.6.8-.4 1.3-1 1.6-1.7s.4-1.8.4-3.4V2.7c0-.9-.1-1.5-.3-1.8-.3-.3-.7-.5-1.3-.5h-.7zm12.7 14.4v.4h-6.5v-.4h.5c.6 0 1.1-.2 1.4-.5.2-.2.3-.8.3-1.7V2.7c0-.8 0-1.3-.1-1.5-.1-.2-.2-.3-.5-.5s-.7-.3-1-.3H61V0h6.5v.4H67c-.6 0-1.1.2-1.4.5-.2.2-.3.8-.3 1.7v9.8c0 .8 0 1.3.1 1.5.1.2.2.3.5.5s.7.3 1 .3h.5zM81.7 0l.3 5.2h-.3c-.5-1.5-1.1-2.7-2-3.3s-1.9-1-3.1-1c-1 0-1.9.3-2.7.8-.8.4-1.4 1.2-1.9 2.3s-.7 2.5-.7 4.2c0 1.4.2 2.6.7 3.6.4 1 1.1 1.8 2 2.3.9.5 1.9.8 3 .8 1 0 1.9-.2 2.6-.6s1.6-1.3 2.5-2.5l.3.2c-.8 1.3-1.6 2.3-2.7 3s-2.2.9-3.6.9c-2.5 0-4.5-.9-5.8-2.8-1-1.4-1.5-3-1.5-4.9 0-1.5.3-2.9 1-4.2s1.6-2.3 2.8-2.9a7.56 7.56 0 0 1 7.1-.2c.3.2.5.2.7.2.2 0 .4-.1.5-.2.2-.2.3-.5.4-.8h.4zm8.4 6.8 5.6 5.6a15 15 0 0 0 2.3 1.9c.6.3 1.3.5 1.9.6v.4h-7.2v-.4c.4 0 .7-.1.9-.2.2-.1.3-.3.3-.5s0-.3-.1-.5c-.1-.1-.3-.4-.7-.8l-5.2-5.2v4.9c0 .8 0 1.3.1 1.5.1.2.2.3.5.5s.7.3 1 .3h.5v.4h-6.5v-.4h.5c.6 0 1.1-.2 1.4-.5.2-.2.3-.8.3-1.7v-10c0-.8 0-1.3-.1-1.5-.1-.2-.2-.3-.5-.5s-.7-.3-1-.3h-.5V0h6.5v.4h-.5c-.4 0-.7.1-1 .3-.2.1-.4.3-.5.5s-.1.7-.1 1.5v4.6c.1-.1.7-.6 1.5-1.4 2.2-2 3.6-3.4 4-4.1.2-.3.3-.6.3-.8 0-.2-.1-.3-.2-.5-.2-.1-.4-.2-.8-.2h-.3V0H98v.4c-.3 0-.6.1-.9.1s-.6.2-1 .5-.9.6-1.4 1.1c-.2.1-.9.9-2.3 2.3l-2.3 2.4zM0 31.6h8.7l19.5 23.9V37.1c0-2-.2-3.2-.7-3.7-.6-.7-1.5-1-2.8-1h-1.1v-.9h11.1v.9h-1.1c-1.3 0-2.3.4-2.9 1.2-.3.5-.5 1.6-.5 3.4v27h-.8l-21-25.7V58c0 2 .2 3.2.6 3.7.6.7 1.5 1 2.8 1h1.1v.9H1.8v-.9h1.1c1.4 0 2.3-.4 2.9-1.2.3-.5.5-1.6.5-3.4V35.8c-.9-1.1-1.6-1.8-2.1-2.1-.5-.3-1.2-.7-2.1-1-.5-.1-1.1-.2-2.1-.2v-.9zm53.1-1c4.1 0 7.7 1.6 10.8 4.7 3 3.1 4.6 7.1 4.6 11.8 0 4.8-1.5 8.9-4.6 12.1C60.7 62.4 57 64 52.7 64c-4.4 0-8.1-1.6-11.1-4.7s-4.5-7.2-4.5-12.1c0-5.1 1.7-9.2 5.2-12.4 3-2.8 6.6-4.2 10.8-4.2zm-.5 1.8c-2.9 0-5.1 1.1-6.9 3.2-2.1 2.6-3.2 6.5-3.2 11.6 0 5.2 1.1 9.2 3.3 12 1.7 2.1 4 3.2 6.8 3.2 3 0 5.5-1.2 7.4-3.5 2-2.3 2.9-6 2.9-11.1 0-5.5-1.1-9.5-3.2-12.2-1.7-2.2-4-3.2-7.1-3.2zm45.5-.3.4 7.5h-.9c-.2-1.3-.4-2.3-.7-2.8-.5-.9-1.1-1.6-1.9-2-.8-.4-1.9-.6-3.2-.6h-4.5v24.4c0 2 .2 3.2.6 3.7.6.7 1.5 1 2.8 1h1.1v.7H78.2v-.9h1.1c1.3 0 2.3-.4 2.9-1.2.3-.5.5-1.6.5-3.4V34.1h-3.8c-1.5 0-2.5.1-3.2.3-.8.3-1.5.9-2.1 1.7-.6.8-.9 2-1 3.4h-.9l.4-7.5h26zm11.6 1.7v12.6h7c1.8 0 3-.3 3.6-.8.8-.7 1.3-2 1.4-3.8h.9v11.1h-.9c-.2-1.6-.4-2.5-.7-3-.3-.5-.7-1-1.4-1.3-.6-.3-1.6-.5-3-.5h-7v10.5c0 1.4.1 2.3.2 2.6s.3.5.7.7c.3.2.9.3 1.8.3h5.4c1.8 0 3.1-.1 3.9-.4.8-.3 1.6-.7 2.4-1.5 1-1 2-2.4 3-4.4h.9l-2.8 8h-24.6V63h1.1c.8 0 1.5-.2 2.1-.5.5-.3.8-.6 1-1.1s.3-1.5.3-3.1V37.6c0-2-.2-3.3-.6-3.7-.6-.6-1.5-.9-2.8-.9h-1.1v-.9h24.6l.4 7h-.9c-.3-1.7-.7-2.8-1.1-3.5-.4-.6-1-1.1-1.8-1.4-.6-.2-1.7-.4-3.3-.4h-8.7z"/></svg>